# xmcd
#
# Track frame offsets: 
#        150
#        19362
#        44835
#        65800
#        85042
#        107370
#        127312
#        147742
#        163415
#        173440
#        198495
#
# Disc length: 3017 seconds
#
# Revision: 0
# Processed by: cddbd v1.4PL0 Copyright (c) Steve Scherf et al.
# Submitted via: ExactAudioCopy v0.90b4
#
DISCID=a90bc70b
DTITLE=Terry Garland - The One To Blame
DYEAR=1996
DGENRE=Blues
TTITLE0=Good time blues
TTITLE1=The one to blame
TTITLE2=Stagger lee
TTITLE3=Phonograph blues
TTITLE4=Nasty boogie woogie
TTITLE5=A closer walk with thee
TTITLE6=Rollin' and tumblin'
TTITLE7=Goin' down slow
TTITLE8=It'll be me
TTITLE9=When a brother dies
TTITLE10=All aboard
EXTD=
EXTT0=
EXTT1=
EXTT2=
EXTT3=
EXTT4=
EXTT5=
EXTT6=
EXTT7=
EXTT8=
EXTT9=
EXTT10=
PLAYORDER=
